<?xml version="1.0" encoding="UTF-8" standalone="no"?>
<svg width="50px" height="50px" viewBox="0 0 50 50" version="1.1" xmlns="http://www.w3.org/2000/svg" xmlns:xlink="http://www.w3.org/1999/xlink">
    <!-- Generator: Sketch 3.6.1 (26313) - http://www.bohemiancoding.com/sketch -->
    <title>design-24px-glyph-2_transform-origin</title>
    <desc>Created with Sketch.</desc>
    <defs></defs>
    <g id="Page-1" stroke="none" stroke-width="1" fill="none" fill-rule="evenodd" opacity="0.4">
        <g id="综合应用-copy" transform="translate(-382.000000, -287.000000)">
            <g id="card" transform="translate(70.000000, 60.000000)">
                <g id="Group-2-Copy-2" transform="translate(0.000000, 187.000000)">
                    <g id="Group-3-Copy" transform="translate(302.000000, 30.000000)">
                        <g id="design-24px-glyph-2_transform-origin" transform="translate(10.000000, 10.000000)">
                            <circle id="Oval-23" fill="#578797" cx="25" cy="25" r="25"></circle>
                            <g id="social-24px-glyph-1_logo-codepen" transform="translate(13.000000, 13.000000)" fill="#FFFFFF">
                                <path d="M24,8.2 L24,8.2 L24,8.1 L24,8.1 L24,8 C24,8 24,8 24,7.9 C24,7.9 24,7.9 24,7.8 L24,7.8 C24,7.8 24,7.8 24,7.7 L24,7.7 C24,7.7 24,7.7 23.9,7.6 L23.9,7.6 C23.9,7.6 23.9,7.6 23.8,7.6 L23.8,7.6 L23.8,7.6 L12.8,0.3 C12.5,0.1 12,0.1 11.7,0.3 L0.7,7.6 L0.7,7.6 L0.7,7.6 C0.7,7.6 0.7,7.6 0.6,7.6 L0.6,7.6 C0.6,7.6 0.6,7.6 0.5,7.7 L0.5,7.7 C0.5,7.7 0.5,7.7 0.5,7.8 L0.5,7.8 C0.5,7.8 0.5,7.8 0.5,7.9 C0.5,7.9 0.5,7.9 0.5,8 C0.5,8 0.5,8 0.5,8.1 L0.5,8.1 L0.5,8.2 L0.5,8.2 L0.5,8.3 L0.5,15.6 L0.5,15.7 L0.5,15.7 L0.5,15.8 L0.5,15.8 L0.5,15.9 L0.5,15.9 C0.5,15.9 0.5,15.9 0.5,16 L0.5,16 C0.5,16 0.5,16 0.5,16.1 L0.5,16.1 C0.5,16.1 0.5,16.1 0.6,16.2 L0.6,16.2 L0.7,16.2 L0.7,16.2 L0.7,16.2 L11.7,23.5 C11.9,23.6 12.1,23.7 12.3,23.7 C12.5,23.7 12.7,23.6 12.9,23.5 L23.9,16.2 L23.9,16.2 L23.9,16.2 L24,16.2 L24,16.2 C24,16.2 24,16.2 24.1,16.1 L24.1,16.1 C24.1,16.1 24.1,16.1 24.1,16 L24.1,16 C24.1,16 24.1,16 24.1,15.9 L24.1,15.9 L24.1,15.8 L24.1,15.8 L24.1,15.7 L24.1,15.7 L24.1,15.6 L24.1,8.3 C24,8.3 24,8.3 24,8.2 L24,8.2 Z M13,3 L21.1,8.4 L17.5,10.8 L13,7.8 L13,3 L13,3 Z M11,3 L11,7.8 L6.5,10.8 L2.9,8.3 L11,3 L11,3 Z M2.1,10.3 L4.6,12 L2,13.7 L2,10.3 L2.1,10.3 Z M11,21 L2.9,15.6 L6.5,13.2 L11,16.2 L11,21 L11,21 Z M12,14.4 L8.4,12 L12,9.6 L15.6,12 L12,14.4 L12,14.4 Z M13,21 L13,16.2 L17.5,13.2 L21.1,15.6 L13,21 L13,21 Z M21.9,13.7 L19.4,12 L22,10.3 L22,13.7 L21.9,13.7 Z" id="Shape"></path>
                            </g>
                        </g>
                    </g>
                </g>
            </g>
        </g>
    </g>
</svg>