<?xml version="1.0" encoding="UTF-8" standalone="no"?>
<svg width="50px" height="50px" viewBox="0 0 50 50" version="1.1" xmlns="http://www.w3.org/2000/svg" xmlns:xlink="http://www.w3.org/1999/xlink">
    <!-- Generator: Sketch 3.6.1 (26313) - http://www.bohemiancoding.com/sketch -->
    <title>design-24px-glyph-2_transform-origin</title>
    <desc>Created with Sketch.</desc>
    <defs></defs>
    <g id="Page-1" stroke="none" stroke-width="1" fill="none" fill-rule="evenodd" opacity="0.4">
        <g id="综合应用-copy" transform="translate(-80.000000, -474.000000)">
            <g id="card" transform="translate(70.000000, 60.000000)">
                <g id="Group-2-Copy-3" transform="translate(0.000000, 374.000000)">
                    <g id="Group-3" transform="translate(0.000000, 30.000000)">
                        <g id="design-24px-glyph-2_transform-origin" transform="translate(10.000000, 10.000000)">
                            <circle id="Oval-23" fill="#323B45" cx="25" cy="25" r="25"></circle>
                            <g id="ui-24px-glyph-1_database" transform="translate(15.000000, 13.000000)" fill="#FFFFFF">
                                <g id="Group">
                                    <path d="M10,10 C6.2,10 2.3,9.3 0,7.6 L0,12 C0,14.7 5.2,16 10,16 C14.8,16 20,14.7 20,12 L20,7.6 C17.7,9.3 13.8,10 10,10 L10,10 Z" id="Shape"></path>
                                    <path d="M10,18 C6.2,18 2.3,17.3 0,15.6 L0,20 C0,22.7 5.2,24 10,24 C14.8,24 20,22.7 20,20 L20,15.6 C17.7,17.3 13.8,18 10,18 L10,18 Z" id="Shape"></path>
                                    <path d="M10,0 C5.2,0 0,1.3 0,4 C0,6.7 5.2,8 10,8 C14.8,8 20,6.7 20,4 C20,1.3 14.8,0 10,0 L10,0 Z" id="Shape"></path>
                                </g>
                            </g>
                        </g>
                    </g>
                </g>
            </g>
        </g>
    </g>
</svg>