<?xml version="1.0" encoding="UTF-8" standalone="no"?>
<svg width="50px" height="50px" viewBox="0 0 50 50" version="1.1" xmlns="http://www.w3.org/2000/svg" xmlns:xlink="http://www.w3.org/1999/xlink">
    <!-- Generator: Sketch 3.6.1 (26313) - http://www.bohemiancoding.com/sketch -->
    <title>design-24px-glyph-2_transform-origin</title>
    <desc>Created with Sketch.</desc>
    <defs></defs>
    <g id="Page-1" stroke="none" stroke-width="1" fill="none" fill-rule="evenodd">
        <g id="综合应用" transform="translate(-382.000000, -474.000000)">
            <g id="card" transform="translate(70.000000, 60.000000)">
                <g id="Group-2-Copy-3" transform="translate(0.000000, 374.000000)">
                    <g id="Group-3-Copy" transform="translate(302.000000, 30.000000)">
                        <g id="design-24px-glyph-2_transform-origin" transform="translate(10.000000, 10.000000)">
                            <circle id="Oval-23" fill="#29839A" cx="25" cy="25" r="25"></circle>
                            <g id="shopping-24px-glyph-2_currency-exchange" transform="translate(13.000000, 15.000000)" fill="#FFFFFF">
                                <g id="clothes-24px-glyph_glasses">
                                    <path d="M23.9,11.6 L19.9,0.6 C19.8,0.3 19.4,0 19,0 L16,0 C15.4,0 15,0.4 15,1 C15,1.6 15.4,2 16,2 L18.3,2 L21.6,11 L14,11 L10,11 L2.4,11 L5.7,2 L8,2 C8.6,2 9,1.6 9,1 C9,0.4 8.6,0 8,0 L5,0 C4.6,0 4.2,0.3 4.1,0.7 L0.1,11.7 C0,11.7 0,11.9 0,12 L0,12 L0,12 L0,12 L0,17 C0,18.7 1.3,20 3,20 L8,20 C9.7,20 11,18.7 11,17 L11,13 L13,13 L13,17 C13,18.7 14.3,20 16,20 L21,20 C22.7,20 24,18.7 24,17 L24,12 L24,12 L24,12 L24,12 C24,11.9 24,11.7 23.9,11.6 L23.9,11.6 Z" id="Shape"></path>
                                </g>
                            </g>
                        </g>
                    </g>
                </g>
            </g>
        </g>
    </g>
</svg>