<?xml version="1.0" encoding="UTF-8" standalone="no"?>
<svg width="50px" height="50px" viewBox="0 0 50 50" version="1.1" xmlns="http://www.w3.org/2000/svg" xmlns:xlink="http://www.w3.org/1999/xlink">
    <!-- Generator: Sketch 3.6.1 (26313) - http://www.bohemiancoding.com/sketch -->
    <title>design-24px-glyph-2_transform-origin</title>
    <desc>Created with Sketch.</desc>
    <defs></defs>
    <g id="Page-1" stroke="none" stroke-width="1" fill="none" fill-rule="evenodd">
        <g id="综合应用" transform="translate(-986.000000, -100.000000)">
            <g id="card" transform="translate(70.000000, 60.000000)">
                <g id="Group-2">
                    <g id="Group-3-Copy-3" transform="translate(906.000000, 30.000000)">
                        <g id="design-24px-glyph-2_transform-origin" transform="translate(10.000000, 10.000000)">
                            <circle id="Oval-23" fill="#8E3F3F" cx="25" cy="25" r="25"></circle>
                            <g id="shopping-24px-glyph-2_currency-exchange" transform="translate(15.000000, 13.000000)" fill="#FFFFFF">
                                <g id="location-24px-glyph_position-marker">
                                    <g id="Group">
                                        <path d="M17,7 C17,3.1 13.9,0 10,0 C6.1,0 3,3.1 3,7 C3,10.5 5.6,13.4 9,13.9 L9,19 C9,19.6 9.4,20 10,20 C10.6,20 11,19.6 11,19 L11,13.9 C14.4,13.4 17,10.5 17,7 L17,7 Z" id="Shape"></path>
                                        <path d="M13,16.2 L13,18.2 C16.3,18.6 18,19.6 18,20 C18,20.5 15.2,22 10,22 C4.8,22 2,20.5 2,20 C2,19.6 3.7,18.6 7,18.2 L7,16.2 C3.3,16.6 0,17.9 0,20 C0,22.7 5.2,24 10,24 C14.8,24 20,22.7 20,20 C20,17.8 16.7,16.6 13,16.2 L13,16.2 Z" id="Shape"></path>
                                    </g>
                                </g>
                            </g>
                        </g>
                    </g>
                </g>
            </g>
        </g>
    </g>
</svg>