<?xml version="1.0" encoding="UTF-8" standalone="no"?>
<svg width="50px" height="50px" viewBox="0 0 50 50" version="1.1" xmlns="http://www.w3.org/2000/svg" xmlns:xlink="http://www.w3.org/1999/xlink">
    <!-- Generator: Sketch 3.6.1 (26313) - http://www.bohemiancoding.com/sketch -->
    <title>design-24px-glyph-2_transform-origin</title>
    <desc>Created with Sketch.</desc>
    <defs></defs>
    <g id="Page-1" stroke="none" stroke-width="1" fill="none" fill-rule="evenodd">
        <g id="综合应用" transform="translate(-382.000000, -100.000000)">
            <g id="card" transform="translate(70.000000, 60.000000)">
                <g id="Group-2">
                    <g id="Group-3-Copy" transform="translate(302.000000, 30.000000)">
                        <g id="design-24px-glyph-2_transform-origin" transform="translate(10.000000, 10.000000)">
                            <circle id="Oval-23" fill="#58666E" cx="25" cy="25" r="25"></circle>
                            <g id="shopping-24px-glyph-2_currency-exchange" transform="translate(13.000000, 13.000000)" fill="#FFFFFF">
                                <g id="Group">
                                    <circle id="Oval" cx="5" cy="5" r="5"></circle>
                                    <circle id="Oval" cx="19" cy="19" r="5"></circle>
                                    <path d="M17,6 L20,6 L20,11 L22,11 L22,5 C22,4.448 21.552,4 21,4 L17,4 L17,1 L12,5 L17,9 L17,6 L17,6 Z" id="Shape"></path>
                                    <path d="M7,18 L4,18 L4,13 L2,13 L2,19 C2,19.552 2.448,20 3,20 L7,20 L7,23 L12,19 L7,15 L7,18 L7,18 Z" id="Shape"></path>
                                </g>
                            </g>
                        </g>
                    </g>
                </g>
            </g>
        </g>
    </g>
</svg>