<?xml version="1.0" encoding="UTF-8" standalone="no"?>
<svg width="50px" height="50px" viewBox="0 0 50 50" version="1.1" xmlns="http://www.w3.org/2000/svg" xmlns:xlink="http://www.w3.org/1999/xlink">
    <!-- Generator: Sketch 3.6.1 (26313) - http://www.bohemiancoding.com/sketch -->
    <title>design-24px-glyph-2_transform-origin</title>
    <desc>Created with Sketch.</desc>
    <defs></defs>
    <g id="Page-1" stroke="none" stroke-width="1" fill="none" fill-rule="evenodd">
        <g id="综合应用" transform="translate(-80.000000, -287.000000)">
            <g id="card" transform="translate(70.000000, 60.000000)">
                <g id="Group-2-Copy-2" transform="translate(0.000000, 187.000000)">
                    <g id="Group-3" transform="translate(0.000000, 30.000000)">
                        <g id="design-24px-glyph-2_transform-origin" transform="translate(10.000000, 10.000000)">
                            <circle id="Oval-23" fill="#5F7255" cx="25" cy="25" r="25"></circle>
                            <g id="business-24px-glyph_handout" transform="translate(13.000000, 14.000000)" fill="#FFFFFF">
                                <g id="Group">
                                    <path d="M16.5,5 C14.6,5 13,6.6 13,8.5 C13,10.4 14.6,12 16.5,12 C18.4,12 20,10.4 20,8.5 C20,6.6 18.4,5 16.5,5 L16.5,5 Z" id="Shape"></path>
                                    <path d="M9.5,0 C7.6,0 6,1.6 6,3.5 C6,5.4 7.6,7 9.5,7 C11.4,7 13,5.4 13,3.5 C13,1.6 11.4,0 9.5,0 L9.5,0 Z" id="Shape"></path>
                                    <path d="M23,16.7 C22.7,15.8 21.5,14 19,14 L14.5,14 C13.8,13.4 12.9,13 12,13 L9.5,13 C8.4,11.7 6.8,11 5,11 L3,11 L3,11 C3,10.4 2.6,10 2,10 L1,10 C0.4,10 0,10.4 0,11 L0,19 C0,19.6 0.4,20 1,20 L2,20 C2.5,20 2.9,19.6 3,19.1 L8.5,21.7 C8.5,21.7 8.6,21.7 8.6,21.8 C9.2,22 9.7,22.1 10.3,22.1 C10.7,22.1 11.2,22 11.6,21.9 L11.7,21.9 L22.3,18 C22.8,17.8 23.1,17.3 23,16.7 L23,16.7 Z M11.1,19.9 C10.5,20 9.9,20 9.3,19.8 L3,16.8 L3,13 L5,13 C6.3,13 7.5,13.6 8.2,14.6 C8.4,14.9 8.7,15 9,15 L12,15 C12.6,15 13.2,15.4 13.6,16 L8,16 C7.4,16 7,16.4 7,17 C7,17.6 7.4,18 8,18 L15,18 C15.6,18 16,17.6 16,17 C16,16.7 15.9,16.3 15.8,16 L19,16 C19.7,16 20.2,16.2 20.5,16.5 L11.1,19.9 L11.1,19.9 Z" id="Shape"></path>
                                </g>
                            </g>
                        </g>
                    </g>
                </g>
            </g>
        </g>
    </g>
</svg>