<?xml version="1.0" encoding="UTF-8" standalone="no"?>
<svg width="50px" height="50px" viewBox="0 0 50 50" version="1.1" xmlns="http://www.w3.org/2000/svg" xmlns:xlink="http://www.w3.org/1999/xlink">
    <!-- Generator: Sketch 3.6.1 (26313) - http://www.bohemiancoding.com/sketch -->
    <title>design-24px-glyph-2_transform-origin</title>
    <desc>Created with Sketch.</desc>
    <defs></defs>
    <g id="Page-1" stroke="none" stroke-width="1" fill="none" fill-rule="evenodd" opacity="0.4">
        <g id="综合应用-copy" transform="translate(-684.000000, -287.000000)">
            <g id="card" transform="translate(70.000000, 60.000000)">
                <g id="Group-2-Copy-2" transform="translate(0.000000, 187.000000)">
                    <g id="Group-3-Copy-2" transform="translate(604.000000, 30.000000)">
                        <g id="design-24px-glyph-2_transform-origin" transform="translate(10.000000, 10.000000)">
                            <circle id="Oval-23" fill="#99C693" cx="25" cy="25" r="25"></circle>
                            <g id="media-24px-glyph-1_flash-auto-22" transform="translate(12.000000, 13.000000)" fill="#FFFFFF">
                                <g id="Group">
                                    <path d="M20.9,8.6 C20.8,8.2 20.4,8 20,8 L12.2,8 L13,2.1 C13.1,1.7 12.8,1.2 12.4,1.1 C12,0.9 11.6,1 11.3,1.3 L1.3,12.3 C1,12.6 0.9,13 1.1,13.4 C1.2,13.8 1.6,14 2,14 L9.8,14 L9,19.9 C8.9,20.3 9.2,20.8 9.6,20.9 C9.7,21 9.9,21 10,21 C10.3,21 10.5,20.9 10.7,20.7 L20.7,9.7 C21,9.4 21.1,9 20.9,8.6 L20.9,8.6 Z" id="Shape"></path>
                                    <path d="M18.8,15.4 C18.4,14.8 17.5,14.8 17.1,15.4 L13.1,21.4 C12.8,21.9 12.9,22.5 13.4,22.8 C13.9,23.1 14.5,23 14.8,22.5 L15.8,20.9 L20.1,20.9 L21.1,22.5 C21.3,22.8 21.6,22.9 21.9,22.9 C22.1,22.9 22.3,22.8 22.5,22.7 C23,22.4 23.1,21.8 22.8,21.3 L18.8,15.4 L18.8,15.4 Z M17.2,19 L18,17.8 L18.8,19 L17.2,19 L17.2,19 Z" id="Shape"></path>
                                </g>
                            </g>
                        </g>
                    </g>
                </g>
            </g>
        </g>
    </g>
</svg>